<svg id="Capa_1" xmlns="http://www.w3.org/2000/svg" viewBox="0 0 1920 1920" width="64"><defs><style>
      .st0 {
        fill: #fff;
      }
    </style></defs><path class="st0" d="M733.08,1377.02h-4.28c-3.35,0-6.07,2.72-6.07,6.07v4.28c0,3.35,2.72,6.07,6.07,6.07h4.28c3.35,0,6.07-2.72,6.07-6.07v-4.28c0-3.35-2.72-6.07-6.07-6.07"></path><path class="st0" d="M706.1,1377.02h-4.28c-3.35,0-6.07,2.72-6.07,6.07v4.28c0,3.35,2.72,6.07,6.07,6.07h4.28c3.35,0,6.07-2.72,6.07-6.07v-4.28c0-3.35-2.72-6.07-6.07-6.07"></path><path class="st0" d="M965.15,1377.02h-4.29c-3.35,0-6.07,2.72-6.07,6.07v4.28c0,3.35,2.72,6.07,6.07,6.07h4.29c3.35,0,6.07-2.72,6.07-6.07v-4.28c0-3.35-2.72-6.07-6.07-6.07"></path><path class="st0" d="M938.17,1377.02h-4.28c-3.35,0-6.07,2.72-6.07,6.07v4.28c0,3.35,2.72,6.07,6.07,6.07h4.28c3.35,0,6.07-2.72,6.07-6.07v-4.28c0-3.35-2.72-6.07-6.07-6.07"></path><path class="st0" d="M1195.66,1377.02h-4.29c-3.35,0-6.07,2.72-6.07,6.07v4.28c0,3.35,2.72,6.07,6.07,6.07h4.29c3.35,0,6.07-2.72,6.07-6.07v-4.28c0-3.35-2.72-6.07-6.07-6.07"></path><path class="st0" d="M1168.69,1377.02h-4.28c-3.35,0-6.07,2.72-6.07,6.07v4.28c0,3.35,2.72,6.07,6.07,6.07h4.28c3.35,0,6.07-2.72,6.07-6.07v-4.28c0-3.35-2.72-6.07-6.07-6.07"></path><path class="st0" d="M1331.26,314.03c-1.54-.76-156.54-75.99-373.94-75.99s-367.43,75.28-368.91,76.04c-2.71,1.38-4.41,4.17-4.41,7.21v19.92c0,4.47,3.62,8.09,8.09,8.09h71.83v10.89c0,4.47,3.62,8.09,8.09,8.09h41.08c4.47,0,8.09-3.61,8.09-8.08l.02-10.9h52.38v10.89c0,4.47,3.62,8.09,8.09,8.09h41.08c4.47,0,8.09-3.61,8.09-8.08l.02-10.9h52.38v10.89c0,4.47,3.62,8.09,8.09,8.09h41.08c4.47,0,8.08-3.61,8.09-8.08l.02-10.9h52.38v10.89c0,4.47,3.62,8.09,8.09,8.09h41.08c4.46,0,8.09-3.61,8.09-8.08l.02-10.9h52.38v10.89c0,4.47,3.62,8.09,8.09,8.09h41.08c4.46,0,8.09-3.61,8.09-8.08l.02-10.9h52.21v10.31c0,4.47,3.62,8.09,8.09,8.09h41.08c4.46,0,8.09-3.62,8.09-8.08l.02-10.9h58.36c4.47,0,8.09-3.62,8.09-8.09v-19.34c0-3.08-1.75-5.89-4.51-7.26M1319.59,332.53h-58.34c-4.46,0-8.09,3.62-8.09,8.08l-.02,10.9h-24.91v-10.31c0-4.47-3.62-8.09-8.09-8.09h-68.39c-4.46,0-8.08,3.61-8.09,8.08v10.9h-24.93v-10.89c0-4.47-3.62-8.09-8.09-8.09h-68.55c-4.46,0-8.09,3.61-8.09,8.08l-.02,10.9h-24.91v-10.89c0-4.47-3.62-8.09-8.09-8.09h-68.55c-4.46,0-8.08,3.61-8.09,8.08l-.02,10.9h-24.91v-10.89c0-4.47-3.62-8.09-8.09-8.09h-68.55c-4.46,0-8.09,3.61-8.09,8.08l-.02,10.9h-24.91v-10.89c0-4.47-3.62-8.09-8.09-8.09h-68.55c-4.46,0-8.09,3.61-8.09,8.08l-.02,10.9h-24.91v-10.89c0-4.47-3.62-8.09-8.09-8.09h-71.83v-6.74c26-12.14,164.4-72.15,357.14-72.15s335.55,60.13,362.27,72.22v6.09Z"></path><path class="st0" d="M1601.02,23.18h-31.69c-4.47,0-8.09,3.62-8.09,8.09v28.87h-41.39v-28.87c0-4.47-3.62-8.09-8.09-8.09h-39.22c-4.47,0-8.09,3.62-8.09,8.09v28.73l-39.24-.69v-28.04c0-4.43-3.56-8.03-7.99-8.09l-30.51-.39c-2.13.01-4.25.81-5.79,2.33-1.54,1.52-2.41,3.6-2.41,5.76v68.99h-50.25l-24.06-.1c-2.11.02-4.22.84-5.74,2.36-1.53,1.52-2.38,3.58-2.38,5.73v11.95h-43.34v-11.95c0-4.47-3.62-8.09-8.09-8.09h-45.91c-4.47,0-8.09,3.62-8.09,8.09v11.95h-48.04v-11.95c0-4.47-3.62-8.09-8.09-8.09h-59.99c-4.47,0-8.09,3.62-8.09,8.09v11.95h-43.36v-12.53c0-4.47-3.62-8.09-8.09-8.09h-19.88v-11.95c0-4.47-3.62-8.09-8.09-8.09h-56.36c-4.47,0-8.09,3.62-8.09,8.09v11.95h-19.88c-4.47,0-8.09,3.62-8.09,8.09v12.53h-43.36v-11.95c0-4.47-3.62-8.09-8.09-8.09h-59.99c-4.47,0-8.09,3.62-8.09,8.09v11.95h-48.04v-11.95c0-4.47-3.62-8.09-8.09-8.09h-45.91c-4.47,0-8.09,3.62-8.09,8.09v11.95h-43.34v-11.95c0-2.15-.86-4.21-2.38-5.73-1.52-1.52-3.68-2.29-5.74-2.36l-71.97.09V31.27c0-4.47-3.62-8.09-8.09-8.09h-31.51c-4.47,0-8.09,3.62-8.09,8.09v28.87h-42.09v-28.87c0-4.47-3.62-8.09-8.09-8.09h-39.06c-4.47,0-8.09,3.62-8.09,8.09v28.73l-39-.69v-28.04c0-4.43-3.56-8.03-7.99-8.09l-30.39-.39c-2.15.01-4.25.81-5.79,2.33-1.54,1.52-2.41,3.6-2.41,5.76v1221.72c0,355.44,289.17,644.61,644.6,644.61h9.01c355.43,0,644.6-289.17,644.6-644.61V31.27c0-4.47-3.62-8.09-8.09-8.09M327.07,151.69h198.23v240.26h-198.23v-240.26ZM1378.51,278.59h-24.07c-85.98-36.17-222.62-78.94-387.85-78.94-140.09,0-274.24,26.56-398.74,78.94h-26.37v-100.25h837.02v100.25ZM544.38,294.77h25.11c1.08,0,2.15-.22,3.15-.64,122.92-51.95,255.47-78.3,393.95-78.3,163.49,0,298.55,42.58,383.06,78.3,1,.42,2.07.64,3.15.64h24.9v97.18h-833.32v-97.18ZM1395.05,151.69h197.88v240.26h-197.88v-240.26ZM1394.69,39.08l14.33.18v28c0,4.41,3.54,8.01,7.95,8.09l55.42.97c2.19.08,4.27-.8,5.81-2.32,1.55-1.52,2.42-3.6,2.42-5.77v-28.87h23.04v28.87c0,4.47,3.62,8.09,8.09,8.09h57.57c4.47,0,8.09-3.62,8.09-8.09v-28.87h15.51v96.15h-198.23V39.08ZM605.4,115.99v11.91c0,4.47,3.62,8.09,8.09,8.09h59.53c4.47,0,8.09-3.62,8.09-8.09v-11.95h29.72v11.95c0,4.47,3.62,8.09,8.09,8.09h64.22c4.47,0,8.09-3.62,8.09-8.09v-11.95h43.81v11.95c0,4.47,3.62,8.09,8.09,8.09h59.55c4.47,0,8.09-3.62,8.09-8.09v-12.53h19.88c4.47,0,8.09-3.62,8.09-8.09v-11.95h40.17v11.95c0,4.47,3.62,8.09,8.09,8.09h19.88v12.53c0,4.47,3.62,8.09,8.09,8.09h59.55c4.47,0,8.09-3.62,8.09-8.09v-11.95h43.81v11.95c0,4.47,3.62,8.09,8.09,8.09h64.22c4.47,0,8.09-3.62,8.09-8.09v-11.95h29.73v11.95c0,4.47,3.62,8.09,8.09,8.09h59.53c4.47,0,8.09-3.62,8.09-8.09v-11.91l66.25.06v27.55c0,.79.15,1.54.36,2.26v16.29h-837.38v-46.1l63.91-.07ZM327.07,39.08l14.2.18v28c0,4.41,3.54,8.01,7.95,8.09l55.19.97c2.2.08,4.27-.8,5.81-2.32,1.55-1.52,2.42-3.6,2.42-5.77v-28.87h22.87v28.87c0,4.47,3.62,8.09,8.09,8.09h58.28c4.47,0,8.09-3.62,8.09-8.09v-28.87h15.33v96.15h-198.23V39.08ZM1592.93,408.13v844.47c0,346.51-281.91,628.42-628.42,628.42h-9.01c-346.51,0-628.42-281.91-628.42-628.42V408.13"></path><path class="st0" d="M1214.5,947.11s1.14-27.25-27.3-35.2c0,0,2.27,35.2,27.3,35.2"></path><path class="st0" d="M533.4,606.37c-4.47,0-8.09,3.62-8.09,8.09v638.15c0,237.21,192.98,430.19,430.19,430.19h9.01c20.21,0,40.54-1.42,60.42-4.23,210.8-29.76,369.77-212.88,369.77-425.96v-638.15c0-4.47-3.62-8.09-8.09-8.09h-853.2ZM1347.57,1408.6h-119.31v-.21c0-1.95-.93-3.66-2.35-4.77v-34.79c1.42-1.11,2.35-2.82,2.35-4.77v-2.23c0-1.98-.96-3.73-2.43-4.83-.08-.59-.21-1.18-.47-1.74-.34-.73-7.06-14.78-27.67-20.22v-6.26c0-2.26-1.25-4.32-3.25-5.37l-12.94-6.8c-1.9-.99-4.18-.91-6,.21l-11.9,7.32c-1.8,1.1-2.89,3.06-2.89,5.17v6.35c-18.98,5.81-25.3,18.9-25.62,19.61-.26.57-.4,1.15-.47,1.74-1.47,1.11-2.43,2.85-2.43,4.83v2.23c0,1.95.93,3.66,2.35,4.77v34.79c-1.42,1.11-2.35,2.82-2.35,4.77v.21h-135.35v-.21c0-1.95-.93-3.66-2.35-4.77v-34.79c1.42-1.11,2.35-2.82,2.35-4.77v-2.23c0-1.98-.96-3.73-2.43-4.83-.08-.59-.21-1.18-.47-1.74-.34-.74-7.11-14.93-27.96-20.31v-6.17c0-2.26-1.25-4.32-3.25-5.37l-12.94-6.8c-1.89-.99-4.18-.91-6,.21l-11.9,7.32c-1.79,1.1-2.89,3.06-2.89,5.17v6.44c-18.75,5.85-25,18.81-25.33,19.52-.26.57-.39,1.15-.47,1.74-1.47,1.11-2.43,2.85-2.43,4.83v2.23c0,1.95.93,3.66,2.35,4.77v34.79c-1.42,1.11-2.35,2.82-2.35,4.77v.21h-135.35v-.21c0-1.95-.93-3.66-2.35-4.77v-34.79c1.42-1.11,2.35-2.82,2.35-4.77v-2.23c0-1.98-.96-3.73-2.43-4.83-.08-.59-.21-1.18-.47-1.74-.33-.73-6.95-14.49-27.09-20.05v-6.43c0-2.26-1.25-4.32-3.25-5.37l-12.95-6.8c-1.9-1-4.18-.92-6,.21l-11.9,7.32c-1.8,1.1-2.89,3.06-2.89,5.17v6.17c-19.43,5.71-25.87,19.07-26.2,19.78-.26.57-.39,1.15-.47,1.74-1.47,1.11-2.43,2.85-2.43,4.83v2.23c0,1.95.93,3.66,2.35,4.77v34.79c-1.42,1.11-2.35,2.82-2.35,4.77v.21h-97.3c-18.89-46.26-29.63-96.67-30.46-149.45h836.79c-.84,52.48-11.67,102.95-30.78,149.45M1319.17,1465.26c-7.97-2.43-16.52-3.7-25.58-3.7-36.85,0-56.89,19.88-67.67,39.2v-80.02h116.47c-6.87,15.32-14.59,30.2-23.22,44.51M1293.44,1502.95c-5.87-10.27-13.63-18.61-23.66-25.45,7.19-2.51,15.12-3.8,23.81-3.8,6.63,0,12.88.84,18.79,2.32-5.95,9.23-12.28,18.21-18.93,26.93M1259.4,1542.3c-10.88-2.82-22.09-3.55-33.49-2.2v-2.31c.26-2.11,2.34-17.18,11.05-32.22,5.37-9.27,12.04-16.54,19.98-21.78,13.15,7.38,22.11,16.72,28.32,29.58-8.17,10.04-16.8,19.68-25.86,28.92M1027.23,1661.78c-3.05-2.48-6.1-5.22-9.06-8.18-35.66-35.66-71.51-33.69-95.3-25.77-25.37,8.46-42.17,25.06-42.86,25.76-.03.03-2.15,2.11-5.87,4.98-76.95-15.39-146.26-52.19-201.45-103.89,25.12-2.94,49.65,6.72,73.07,28.83,55.12,52.06,112.85,22.69,135.67-.12.17-.17,16.97-16.78,41.87-25.08,21.44-7.15,41.92-5.99,61.24,3.3.76.64,1.67,1.11,2.69,1.31,9.36,4.89,18.43,11.71,27.2,20.47,24.86,24.87,49.84,33.15,72.08,33.15,44.16,0,77.59-32.66,78.11-33.18.24-.24,24.11-24.08,56.83-30.3,9.36-1.78,18.59-1.91,27.59-.49-59.61,56.74-136.15,96.14-221.81,109.23M598.28,1461.66c-7.75-13.19-14.8-26.85-21.08-40.92h94.48v83.87c-11.51-20.39-33.13-43.06-72.38-43.06-.35,0-.69.05-1.02.1M717.37,1345.04c17.13,0,26.26,6.23,30.64,10.74h-61.27c4.4-4.53,13.53-10.74,30.63-10.74M948.8,1345.04c17.13,0,26.26,6.23,30.64,10.74h-61.27c4.4-4.53,13.53-10.74,30.63-10.74M1180.22,1345.04c17.13,0,26.26,6.23,30.64,10.74h-61.28c4.4-4.53,13.53-10.74,30.63-10.74M919.47,1546.79c-1.44.48-2.83,1-4.22,1.52v-127.56h67.1v126.75c-24.03-9.11-46.19-6.27-62.87-.7M683.82,1370.14h67.1v32.19h-67.1v-32.19ZM683.82,1537.45v-116.7h67.1v151.11c-24.45-21.89-47.77-29.13-67.1-29.73v-4.68ZM763.06,1537.8c.25-2.11,2.34-17.18,11.05-32.22,5.21-9.01,11.68-16.11,19.33-21.32,21.19,12.01,31.96,30.22,31.96,54.27l.73,60.66c-18.18,3.43-40.14.84-63.06-16.9v-44.5ZM838.22,1595.92l-.69-57.46c0-25.69-10.85-46.45-31.5-60.64,7.42-2.72,15.66-4.12,24.7-4.12,58.64,0,71.21,58.08,72.38,64.3v15.69c-18.23,9.26-29.66,20.52-30.25,21.11-1.12,1.12-14.48,14.04-34.65,21.13M915.25,1370.14h67.1v32.19h-67.1v-32.19ZM994.48,1537.79c.41-3.57,4.77-35.43,29.44-52.85,24.16,15.18,32.92,37.36,32.92,53.54l.28,59.99c-11.81-4.91-23.2-12.77-34.1-23.67-9.57-9.57-19.15-16.64-28.53-21.74v-15.28ZM1069.27,1602.42l-.3-63.96c0-18.12-8.91-42.39-33.03-60.02,7.38-2.95,16.02-4.74,26.22-4.74,58.64,0,71.2,58.08,72.38,64.3v52.59c-5.98,3.47-13,6.86-20.78,9.42-15.34,5.05-30.2,5.8-44.49,2.41M1146.67,1370.14h67.1v32.19h-67.1v-32.19ZM1146.67,1537.45v-116.7h67.1v121.6c-33.63,8.28-56.77,31.45-57.75,32.45-.07.07-3.45,3.39-9.34,7.78v-45.13ZM1134.54,1420.74v83.87c-11.5-20.39-33.13-43.06-72.38-43.06-16.99,0-30.37,4.25-40.95,10.7-.42.2-.82.45-1.19.74-11.73,7.48-19.91,17.69-25.54,27.77v-80.02h140.05ZM903.11,1420.74v83.87c-11.51-20.39-33.13-43.06-72.38-43.06-16.67,0-29.87,4.09-40.35,10.33-.06.03-.12.07-.18.11-12.6,7.55-21.26,18.23-27.14,28.76v-80.02h140.05ZM761.55,815.21l3.01,18.71h-7.39v-18.71h4.38ZM757.17,808.63v-18.71h.3l3.02,18.71h-3.32ZM765.62,840.5l2.81,17.5h-11.27v-17.5h8.45ZM1163.41,859.25c-.66-10.78-.19-21.21,1.42-30.99,2.04-12.39,10-21.37,23.69-26.7l5.52-2.15v21.66c0,11.61,0,22.89,0,34.16.01,10.18,1.52,11.71,11.57,11.72,12.12.01,24.23.01,36.59,0h19.35s.26,3.76.26,3.76c.05.78.12,1.53.18,2.26.14,1.66.27,3.22.27,4.78v59.56c0,37.16,0,74.32.06,111.48.02,13.93-5.54,23.44-16.53,28.26-8.09,3.56-16.91,2.94-24.2-1.69-7.8-4.95-12.59-13.82-12.82-23.72-.27-11.7-.21-23.58-.15-35.07.03-5.49.06-10.99.05-16.48-.01-9.45-.86-10.44-10.09-11.8-20.43-2.99-32.26-14.94-35.17-35.52-1.42-10.03-5.96-9.72-8.12-9.56-2.14.15-7.13.5-6.66,11.28.87,19.68,15.92,39.34,35.02,45.74,1.53.51,3.09.99,4.78,1.5l5.61,1.73-.02,16.97c-.02,10.46-.04,20.9.04,31.34.16,18.67,9.01,31.9,26.3,39.32,6.56,2.82,7.46,7.21,7.46,11.55-.05,45.22-.06,90.44-.07,135.66v4.64h-254.73c0-.07.02-.14.02-.21v-138.78h4.17c24.93,0,49.87,0,74.8-.04,26.04-.04,45.64-14.86,52.43-39.64,1.84-6.7,2.12-24.02,2.17-29.02.11-11.19.07-22.39.03-33.58-.07-18.04-.14-36.69.48-55.05,1.06-31.58,16.84-55.85,45.63-70.19,8.5-4.24,11.2-8.58,10.66-17.21M1276.99,1049.19c-.1-51.51-.08-103.02-.07-154.53h101.59v251.53h-135.27c.03-14.16.06-28.33.13-42.41.02-3.72,2.03-10.09,6.28-11.95,18.69-8.17,27.37-21.72,27.33-42.63M1243.22,1158.33h135.29v21.73h-135.31c0-7.23,0-14.47.02-21.73M1243.2,1211.8c0-6.51,0-13.03,0-19.6h135.31v19.6h-135.31ZM541.49,1104.15h66.09v138.82h-66.09v-138.82ZM735.87,1033.87v-22.5h11.94v22.5c0,.55.16,1.04.31,1.54h-12.56c.15-.5.31-.99.31-1.54M735.87,982.9c.19-4.21,3.34-8.3,6.08-10.99,2.61,2.57,5.55,6.42,5.93,10.32,0,.15-.06.28-.06.43v22.12h-11.94v-21.88ZM793.25,1046.38v92.06l-13.81-17.94c-10.81-12.2-21.24-19.66-22.12-20.28-1.88-1.32-4.38-1.32-6.27-.01-.89.62-11.57,8.19-22.54,20.57l-13.76,17.76v-92.15h78.5ZM758.94,1034.18v-22.82h11.94v22.82c0,.43.15.82.25,1.22h-12.43c.09-.4.24-.79.24-1.22M758.91,982.27c.45-3.98,3.35-7.8,5.95-10.36,2.72,2.68,5.84,6.71,6.02,10.75v22.12h-11.94v-22.36c0-.05-.03-.1-.03-.16M915.11,1028.82c1.45.07,6.17.74,6.17,6.45,0,4.92-4.37,5.68-7.02,5.69h-14.66v-12.14h15.51ZM874.59,1127.82v12.87l-8.57,7.4c-7.93-8.77-15.39-14.11-16.05-14.55-1.88-1.32-4.38-1.31-6.26-.02-.67.46-8.33,5.9-16.4,14.82l-8.46-7.6v-87.74l55.74,48.89v25.93ZM851.22,1242.97v-94.21c8.89,8.16,22.58,23.54,23.37,41.58v52.63h-23.37ZM885.55,1104.88h3.08v138.09h-3.08v-138.09ZM888.63,1028.82v16.87c-.1.43-.16.88-.16,1.34s.06.91.16,1.34v45.55h-3.08v-65.1h3.08ZM874.59,1087.3l-55.98-49.11v-19.1c.98,2.16,2.24,3.76,3.4,4.88,5.02,4.89,11.65,4.88,12.24,4.85h40.35s0,58.47,0,58.47ZM818.6,1002.61v-24.14h30.05c.18,0,.36,0,.55-.03.04,0,4.25-.23,6.77,2.07,1.53,1.4,2.31,3.74,2.31,6.96,0,2.12-.67,3.02-1.16,3.51-1.42,1.39-4.46,2.15-8.46,2.09h-13.61c-5.53,0-13.09,2.68-16.44,9.53M818.85,1190.29c.84-18.41,15.23-34.07,24.14-42.06v94.74h-24.14v-52.68ZM807.64,1242.97h-3.42v-250.78h3.42v250.78ZM757.78,1242.97v-128.38c11.6,9.97,34.21,32.79,35.41,60.16,0,.09.06.16.06.24v67.97h-35.47ZM714.85,1174.76c1.17-26.62,22.79-48.97,34.71-59.33v127.55h-34.81v-67.79c.01-.15.09-.27.1-.43M703.78,1242.97h-3.42v-250.78h3.42v250.78ZM664.18,1242.97v-94.77c8.91,7.98,23.29,23.61,24.14,42.09v52.68h-24.14ZM688.32,1125.54v15.19l-8.46,7.6c-8.07-8.92-15.73-14.35-16.39-14.81-1.89-1.3-4.39-1.3-6.27.01-.65.45-8.12,5.79-16.06,14.56l-8.56-7.41v-38.8l55.73-48.89v72.55ZM655.95,1148.77v94.21h-23.37v-52.63c.8-18.04,14.48-33.42,23.37-41.58M621.61,1093.92h-3.07v-70.94h3.07v70.94ZM621.61,1242.97h-3.07v-138.09h3.07v138.09ZM899.6,1104.15h57.26v138.61c0,.07.02.14.02.21h-57.28v-138.82ZM1045.79,953.58c-.13,26.11-.1,52.22-.07,78.33.01,11.48.03,22.95.03,34.43v25.57h-72.71s0-197.24,0-197.24h90.37c-11.22,16.44-17.51,36.62-17.62,58.91M956.85,1092.01h-57.26v-38.92h14.71c1.38,0,8.95-.25,14.24-5.47,3.18-3.13,4.86-7.41,4.86-12.36,0-13.01-10.6-18.24-18.02-18.58h-15.96s0-.05-.01-.07c.07-.59.16-1.17.04-1.76l-7.16-35.6c-.52-2.56-2.77-4.4-5.38-4.4h-.03c-2.62,0-4.87,1.88-5.36,4.46l-6.76,35.41c-.1.53-.01,1.06.05,1.59-.03.13-.04.26-.08.39h-40.57c-3.42-.03-5.16-2.11-5.16-6.16,0-4.28,3.31-5.25,6.02-5.31h13.67c7.07.18,13.07-1.82,16.89-5.55,3.15-3.08,4.81-7.29,4.81-12.18,0-8.43-3.4-13.32-6.26-15.93-5.96-5.44-13.82-5.33-15.72-5.22h-29.83v-30.45c.22-.92.3-1.89,0-2.86l-17.22-55.52,14.77,11.26c2.12,1.61,5.04,1.66,7.21.11l43.61-31.15,35.05,35c2.1,2.1,5.41,2.37,7.83.64l24.81-17.81,22.21,16.83v199.64ZM783.75,911.64h16.73l4.63,14.91h-19.21c.1-.41.12-.84.05-1.29l-2.2-13.63ZM782.69,905.07l-2.79-17.35h13.16l5.38,17.35h-15.75ZM791.02,881.14h-12.18l-2.67-16.57h9.72l5.13,16.57ZM775.11,858l-2.81-17.5h6.13l5.42,17.5h-8.74ZM771.24,833.92l-3.02-18.71h2.36l5.81,18.71h-5.14ZM767.16,808.63l-1.49-9.25,2.86,9.25h-1.38ZM769.5,864.57l2.67,16.57h-15v-16.57h12.33ZM773.23,887.72l2.8,17.35h-18.85v-17.35h16.06ZM777.08,911.64l2.36,14.67c.02.09.06.16.08.24h-22.36v-14.91h19.91ZM807.64,937.53v9.66c-.63-.26-1.31-.43-2.04-.43h-.03c-2.6.02-4.83,1.85-5.34,4.4l-6.77,33.54c-.07.32.03.62.02.94-.07.36-.22.7-.22,1.08v48.7h-11.66c.1-.4.25-.79.25-1.22v-51.76c-.58-12.81-13.31-21.8-13.86-22.18-1.87-1.3-4.36-1.32-6.24,0-.76.53-4.82,3.52-8.37,8.23-3.72-4.92-7.98-8.01-8.28-8.22-1.87-1.3-4.36-1.32-6.24,0-1.37.94-13.38,9.58-13.94,22.43v51.2c0,.55.16,1.04.31,1.54h-10.47v-48.7c0-.15-.08-.28-.09-.43.02-.18.1-.32.1-.51,0-.76-.15-1.47-.42-2.14l-6.56-32.49c-.51-2.54-2.75-4.38-5.34-4.4h-.03c-.73,0-1.41.17-2.04.43v-9.66h107.27ZM750.6,887.72v17.35h-18.53l2.76-17.35h15.77ZM735.87,881.14l2.63-16.57h12.09v16.57h-14.72ZM750.6,911.64v14.91h-22c.02-.08.07-.15.09-.24l2.33-14.67h19.58ZM732.89,858h-8.73l5.43-17.5h6.09l-2.79,17.5ZM731.84,864.57l-2.64,16.57h-12.21l5.13-16.57h9.72ZM728.16,887.72l-2.77,17.35h-15.82l5.37-17.35h13.22ZM724.35,911.64l-2.18,13.63c-.07.44-.04.87.06,1.28h-19.33l4.63-14.91h16.82ZM750.6,808.63h-3.17l2.98-18.71h.2v18.71ZM750.6,815.21v18.71h-7.2l2.98-18.71h4.22ZM750.6,840.5v17.5h-11.03l2.79-17.5h8.25ZM740.76,808.63h-1.28l2.64-8.5-1.36,8.5ZM739.71,815.21l-2.98,18.71h-5.1l5.8-18.71h2.28ZM689.5,932.74c-.27.86-.25,1.72-.11,2.55v9.34h-68.31c-.17,0-.37,0-.54.02-1.47.12-6.18.01-8.54-2.03-.66-.57-1.42-1.5-1.55-3.66-.34-5.69,3.75-6.98,6.34-7.23h40.7c6.76,0,12.49-1.82,16.59-5.26,3.93-3.3,6.18-8.04,6.18-12.99,0-8.43-6.65-17.4-18.97-17.4-17.97,0-33.91-12.9-34.31-13.21l-23.27-17.31,96.49-77.26,24.93,21.61c.63.55,1.35.94,2.09,1.19l-37.72,121.65ZM590.19,870.63l29.3,21.78c.78.65,19.39,15.8,41.79,15.8,4.7,0,6.83,2.73,6.83,5.26,0,.98-.32,2.42-1.85,3.7-1.31,1.1-3.9,2.41-8.78,2.41h-41.32c-7.62.46-18.65,6.17-17.84,20.08.29,4.97,2.29,9.19,5.79,12.18,5.08,4.35,11.92,4.97,15.4,4.97.79,0,1.42-.03,1.8-.06h68.07v80.7l-56.81,49.83v-69.81c0-.42-.15-.79-.24-1.19.05-.53.15-1.05.05-1.59l-6.75-35.41c-.49-2.57-2.74-4.44-5.36-4.46h-.03c-2.61,0-4.86,1.84-5.38,4.4l-7.16,35.6c-.12.59-.03,1.18.04,1.76-.04.29-.17.57-.17.87v74.52h-66.09v-255.21l48.7,33.83ZM1243.21,1242.97v-19.04s135.3,0,135.3,0v19.04h-135.3ZM1378.51,882.53h-101.59c0-4.24,0-8.47,0-12.71v-73.44c0-.64.03-1.29.05-1.93.05-1.48.09-2.88-.16-3.99-1.22-5.53-4.69-6.17-7.2-6.17s-6.01.64-7.19,6.15c-.28,1.29-.23,2.86-.17,4.52.02.73.04,1.46.04,2.18v54.71h-53.62v-20.24c.03-12.99.05-25.81-.04-38.63-.04-6.42-2.71-8.73-9.17-8.75-25.7.15-49.42,22.92-50.78,48.72-.18,3.34-.12,6.79-.07,9.83.02,1.37.04,2.68.04,3.9v3.29l-3.23.67c-3.77.78-7.46,1.42-11.08,2.06-7.44,1.3-14.47,2.54-21.07,4.73-15.81,5.26-29.33,13.9-40.04,25.09h-100.2v-259.98h405.47v259.98ZM956.85,622.55v254.6l-18.45-13.98c-2.12-1.61-5.04-1.65-7.2-.09l-24.26,17.42-35.04-34.99c-2.1-2.09-5.4-2.36-7.81-.64l-44.14,31.53-21.83-16.65c-.79-.6-1.67-.95-2.58-1.12l-35.98-116.01v-16.54h6.11c3.03,0,5.48-2.45,5.48-5.48s-2.45-5.48-5.48-5.48h-6.11v-5.39c0-3.03-2.45-5.48-5.49-5.48s-5.48,2.45-5.48,5.48v5.39h-6.11c-3.03,0-5.49,2.45-5.49,5.48s2.45,5.48,5.49,5.48h6.11v16.16l-17.58,56.7-26.67-23.12c-2.21-1.92-5.48-1.98-7.77-.15l-103.04,82.5-52.03-36.14v-199.48h415.36ZM605.79,1473.97c53.07,4.1,64.76,58.03,65.9,64.02v4.62c-3.44.38-6.7.93-9.76,1.61-21.14-21.28-39.98-44.83-56.13-70.26M955.49,1666.61c-22.46,0-44.51-1.83-66.01-5.29,7.89-7.39,63.64-55.61,120.11.86.6.6,1.22,1.15,1.83,1.74-15.52,1.76-31.25,2.69-46.92,2.69h-9.01Z"></path><path class="st0" d="M513.11,521.33l-.49-4.16c-.13-1.14-1.14-1.98-2.29-1.9l-18.37.9-24.07,1.32c-.14-.45-.29-.9-.46-1.35l19.38-13.89,15.24-11.06c.78-.55,1-1.61.49-2.42l-2.23-3.55c-.61-.98-1.88-1.3-2.89-.74l-16.21,8.69-20.85,11.33c-.32-.35-.64-.69-.97-1.02l12.03-20.29,9.51-16.25c.5-.81.27-1.88-.52-2.41l-3.47-2.36c-.95-.65-2.25-.43-2.94.49l-11.35,14.48-14.51,18.72c-.28-.12-.57-.23-.85-.34l3.02-23.74,2.27-18.69c.13-.95-.5-1.83-1.44-2.01l-4.12-.79c-1.13-.22-2.23.49-2.5,1.61l-4.66,17.8-5.99,23.41c-.36,0-.71,0-1.07.03l-7.38-22.96-5.86-17.9c-.28-.91-1.23-1.44-2.15-1.21l-4.06,1.03c-1.12.28-1.81,1.39-1.58,2.52l3.31,18.1,4.48,23.72c-.06.03-.12.05-.17.08l-16-18.46-12.41-14.16c-.62-.73-1.69-.85-2.45-.27l-3.33,2.54c-.92.7-1.12,1.99-.47,2.94l10.15,15.34,13.57,20.27c-.09.11-.18.21-.28.32l-21.56-11.1-16.79-8.52c-.84-.45-1.89-.16-2.38.66l-2.15,3.6c-.59.99-.3,2.27.66,2.91l15.13,10.47,20.24,13.83c-.08.24-.17.48-.24.72l-24.29-1-18.82-.66c-.95-.05-1.78.65-1.88,1.6l-.43,4.17c-.12,1.15.68,2.18,1.82,2.36l18.13,3.13,24,4c.03.31.06.62.09.93l-22.6,8.57-17.57,6.78c-.9.33-1.38,1.3-1.1,2.21l1.24,4c.34,1.1,1.49,1.74,2.6,1.45l17.9-4.25,23.69-5.76c.13.24.27.48.41.72l-16.9,17.3-13.08,13.55c-.68.67-.7,1.76-.06,2.47l2.81,3.11c.77.85,2.08.95,2.97.22l14.45-11.39,18.89-15.06c.3.23.61.45.93.67l-8.42,22.74-6.44,17.7c-.34.89.07,1.89.95,2.28l3.83,1.7c1.05.47,2.29.02,2.8-1.01l8.57-16.28,11.19-21.56c.22.05.45.11.67.15l1.43,24.19,1.22,18.79c.04.95.83,1.7,1.78,1.71h4.19c1.15.02,2.1-.89,2.16-2.04l1.3-18.35,1.58-24.22c.27-.05.54-.1.81-.16l11.36,21.7,8.83,16.63c.43.85,1.46,1.21,2.33.82l3.83-1.71c1.05-.47,1.55-1.68,1.13-2.76l-6.35-17.27-8.57-22.89c.28-.2.56-.39.84-.6l18.97,15.18,14.77,11.68c.74.61,1.82.53,2.46-.18l2.82-3.11c.77-.85.74-2.16-.07-2.98l-12.76-13.26-16.98-17.45c.2-.34.4-.68.59-1.02l23.69,5.67,18.34,4.28c.93.23,1.87-.3,2.15-1.21l1.23-4.01c.34-1.1-.25-2.27-1.33-2.67l-17.19-6.56-22.69-8.52c.04-.38.08-.75.11-1.13l23.71-4.28,18.51-3.45c.94-.16,1.59-1.02,1.48-1.97"></path><path class="st0" d="M419.41,520.54c-.08.13-.15.27-.23.4l-11.61-2.98-9.06-2.27c-.46-.12-.93.13-1.08.58l-.64,1.98c-.18.54.11,1.13.64,1.33l8.47,3.39,11.25,4.44c-.01.14-.03.27-.04.41l-11.8,2.19-9.18,1.75c-.47.08-.79.51-.73.98l.25,2.07c.07.57.57.98,1.14.94l9.11-.49,11.96-.71c.06.18.12.36.18.54l-9.91,6.81-7.67,5.34c-.39.26-.51.79-.27,1.2l1.07,1.78c.29.49.92.66,1.42.39l8.13-4.15,10.7-5.54c.08.08.15.17.23.25l-6.34,10.22-4.88,7.97c-.25.4-.15.93.23,1.2l1.7,1.2c.47.33,1.11.24,1.46-.21l5.77-7.07,7.56-9.37c.12.06.25.11.37.16l-1.6,12.05-1.17,9.27c-.07.47.24.91.71,1l2.04.4c.56.11,1.11-.24,1.25-.79l2.36-8.82,3.07-11.73c.17,0,.34,0,.51,0l3.35,11.58,2.65,8.96c.13.46.59.73,1.05.63l2.03-.45c.56-.12.92-.66.82-1.23l-1.38-9.02-1.9-11.93c.18-.08.35-.16.53-.25l7.99,9.07,6.21,6.98c.31.36.84.41,1.22.12l1.64-1.28c.45-.35.55-.99.22-1.46l-5.09-7.57-6.77-9.94c.12-.14.25-.28.37-.43l10.84,5.04,8.49,3.89c.43.2.94.04,1.17-.38l.99-1.83c.27-.5.1-1.13-.39-1.43l-7.71-4.89-10.14-6.35c.07-.22.14-.45.2-.68l11.83-.09,9.34-.13c.47,0,.87-.37.89-.84l.11-2.08c.03-.57-.39-1.07-.96-1.12l-9.06-1.11-11.69-1.37c-.03-.23-.06-.46-.1-.69l10.68-4.79,8.5-3.87c.43-.19.64-.68.48-1.13l-.73-1.95c-.2-.54-.79-.82-1.33-.64l-8.74,2.63-11.23,3.44c-.08-.13-.17-.25-.25-.38l8.01-8.76,6.26-6.93c.32-.35.32-.88,0-1.22l-1.45-1.5c-.4-.41-1.05-.44-1.48-.06l-6.98,5.88-9.12,7.78c-.15-.1-.29-.2-.44-.29l3.57-11.42,2.74-8.93c.15-.45-.08-.94-.53-1.11l-1.94-.74c-.53-.2-1.13.05-1.36.57l-3.83,8.28-4.96,10.9s-.06-.01-.09-.02l-1.21-12.06-.99-9.29c-.04-.47-.45-.83-.92-.81l-2.08.08c-.57.02-1.02.49-1.03,1.06l-.27,9.12-.29,12.1c-.07.02-.14.03-.2.05l-5.57-10.66-4.37-8.26c-.21-.42-.72-.6-1.15-.41l-1.9.85c-.52.23-.77.83-.56,1.37l3.14,8.57,4.25,11.4c-.1.07-.2.15-.3.22l-9.57-7.35-7.44-5.65c-.37-.29-.91-.24-1.22.11l-1.37,1.57c-.38.43-.35,1.08.06,1.48"></path><path class="st0" d="M513.11,1284.61l-.49-4.16c-.13-1.14-1.14-1.98-2.29-1.9l-18.37.9-24.07,1.32c-.14-.45-.29-.9-.46-1.35l19.38-13.89,15.24-11.06c.78-.55,1-1.61.49-2.42l-2.23-3.55c-.61-.98-1.88-1.3-2.89-.74l-16.21,8.69-20.85,11.33c-.32-.35-.64-.69-.97-1.02l12.03-20.29,9.51-16.25c.5-.81.27-1.88-.52-2.41l-3.47-2.36c-.95-.65-2.25-.43-2.94.49l-11.35,14.48-14.51,18.72c-.28-.12-.57-.23-.85-.34l3.02-23.74,2.27-18.69c.13-.94-.5-1.83-1.44-2.01l-4.12-.79c-1.13-.22-2.23.49-2.5,1.61l-4.66,17.8-5.99,23.41c-.36,0-.71.01-1.07.03l-7.38-22.96-5.86-17.9c-.28-.91-1.23-1.44-2.15-1.21l-4.06,1.03c-1.12.28-1.81,1.39-1.58,2.52l3.31,18.1,4.48,23.72c-.06.03-.12.05-.17.08l-16-18.46-12.41-14.16c-.62-.73-1.69-.85-2.45-.27l-3.33,2.54c-.92.7-1.12,1.99-.47,2.94l10.15,15.34,13.57,20.27c-.09.11-.18.22-.28.32l-21.56-11.1-16.79-8.52c-.84-.45-1.89-.15-2.38.66l-2.15,3.6c-.59.99-.3,2.27.66,2.91l15.13,10.47,20.24,13.83c-.08.24-.17.48-.24.72l-24.29-1-18.82-.66c-.95-.05-1.78.65-1.88,1.6l-.43,4.17c-.12,1.15.68,2.18,1.82,2.36l18.13,3.13,24,4c.03.31.06.62.09.93l-22.6,8.57-17.57,6.78c-.9.33-1.38,1.3-1.1,2.21l1.24,4c.34,1.1,1.49,1.74,2.6,1.45l17.9-4.25,23.69-5.76c.13.24.27.48.41.72l-16.9,17.3-13.08,13.55c-.68.68-.7,1.76-.06,2.47l2.81,3.11c.77.85,2.08.95,2.97.22l14.45-11.39,18.89-15.06c.3.23.61.45.93.67l-8.42,22.74-6.44,17.7c-.34.89.07,1.89.95,2.28l3.83,1.7c1.05.47,2.29.02,2.8-1l8.57-16.28,11.19-21.56c.22.05.45.11.67.15l1.43,24.19,1.22,18.79c.04.95.83,1.7,1.78,1.71h4.19c1.15.02,2.1-.89,2.16-2.04l1.3-18.35,1.58-24.22c.27-.05.54-.1.81-.16l11.36,21.7,8.83,16.63c.43.85,1.46,1.21,2.33.82l3.83-1.71c1.05-.47,1.55-1.68,1.13-2.76l-6.35-17.27-8.57-22.89c.28-.2.56-.39.84-.6l18.97,15.18,14.77,11.68c.74.61,1.82.53,2.46-.18l2.82-3.11c.77-.85.74-2.16-.07-2.98l-12.76-13.25-16.98-17.45c.2-.34.4-.68.59-1.02l23.69,5.67,18.34,4.28c.93.23,1.87-.3,2.15-1.21l1.23-4.01c.34-1.1-.25-2.27-1.33-2.67l-17.19-6.56-22.69-8.52c.04-.38.08-.75.11-1.13l23.71-4.28,18.51-3.45c.94-.16,1.59-1.03,1.48-1.97"></path><path class="st0" d="M468.26,1312.26l.99-1.83c.27-.5.1-1.13-.38-1.43l-7.71-4.89-10.14-6.35c.07-.22.14-.45.2-.68l11.83-.09,9.34-.13c.47,0,.86-.37.89-.84l.11-2.08c.03-.57-.39-1.06-.96-1.12l-9.06-1.11-11.69-1.36c-.03-.23-.06-.46-.1-.69l10.68-4.79,8.5-3.87c.43-.19.64-.68.48-1.13l-.73-1.95c-.2-.54-.79-.82-1.33-.64l-8.74,2.63-11.23,3.44c-.08-.13-.17-.25-.25-.38l8.01-8.76,6.26-6.93c.32-.35.32-.88,0-1.23l-1.45-1.5c-.4-.41-1.05-.44-1.48-.06l-6.98,5.88-9.12,7.78c-.15-.1-.29-.2-.44-.29l3.57-11.42,2.74-8.93c.15-.45-.08-.94-.53-1.1l-1.94-.74c-.53-.2-1.13.05-1.36.57l-3.83,8.29-4.96,10.9s-.06-.01-.09-.02l-1.21-12.06-.99-9.29c-.04-.47-.45-.83-.92-.81l-2.08.08c-.57.02-1.02.49-1.03,1.06l-.27,9.12-.29,12.1c-.07.02-.14.03-.2.05l-5.57-10.66-4.37-8.26c-.21-.42-.72-.6-1.15-.41l-1.9.85c-.52.23-.77.83-.56,1.37l3.14,8.57,4.25,11.4c-.1.07-.2.14-.3.22l-9.57-7.35-7.44-5.65c-.37-.29-.91-.24-1.22.11l-1.37,1.57c-.38.43-.35,1.08.06,1.48l6.46,6.45,8.59,8.48c-.08.13-.15.27-.23.4l-11.61-2.98-9.06-2.27c-.46-.12-.93.13-1.08.58l-.64,1.98c-.18.54.1,1.13.64,1.33l8.47,3.39,11.26,4.44c-.01.14-.03.27-.04.41l-11.8,2.19-9.18,1.76c-.47.08-.79.51-.73.98l.25,2.07c.07.57.57.98,1.14.94l9.11-.49,11.96-.71c.06.18.12.36.18.54l-9.91,6.81-7.67,5.34c-.39.26-.51.79-.27,1.19l1.07,1.78c.29.49.92.66,1.42.39l8.13-4.15,10.7-5.54c.08.08.15.17.23.25l-6.34,10.22-4.88,7.97c-.25.4-.15.93.24,1.2l1.7,1.2c.47.33,1.11.24,1.46-.21l5.77-7.07,7.56-9.37c.12.06.25.11.37.16l-1.6,12.05-1.17,9.27c-.07.47.24.91.71,1l2.04.4c.56.11,1.11-.24,1.25-.79l2.36-8.82,3.07-11.73c.17,0,.34,0,.51,0l3.35,11.58,2.65,8.96c.13.46.59.73,1.05.63l2.03-.45c.56-.12.92-.66.82-1.23l-1.38-9.02-1.9-11.93c.18-.08.35-.16.53-.25l7.99,9.07,6.21,6.98c.31.36.84.41,1.22.12l1.64-1.27c.45-.35.55-.99.22-1.46l-5.09-7.57-6.77-9.94c.12-.14.25-.28.37-.43l10.84,5.04,8.49,3.89c.43.21.94.04,1.17-.38"></path><path class="st0" d="M1039.1,1782.71l-.49-4.16c-.13-1.14-1.14-1.98-2.29-1.9l-18.37.9-24.07,1.32c-.14-.45-.29-.9-.46-1.35l19.38-13.89,15.24-11.06c.78-.55,1-1.61.49-2.42l-2.23-3.55c-.61-.98-1.88-1.3-2.89-.74l-16.21,8.69-20.85,11.33c-.32-.35-.64-.69-.97-1.02l12.03-20.29,9.51-16.25c.5-.81.27-1.88-.52-2.41l-3.47-2.36c-.95-.65-2.25-.43-2.94.49l-11.35,14.48-14.51,18.72c-.28-.12-.57-.23-.85-.34l3.02-23.74,2.27-18.69c.13-.94-.5-1.83-1.44-2.01l-4.12-.79c-1.13-.22-2.23.49-2.5,1.61l-4.67,17.8-5.99,23.41c-.36,0-.71.01-1.07.03l-7.38-22.96-5.86-17.9c-.28-.91-1.23-1.44-2.15-1.21l-4.06,1.03c-1.12.28-1.81,1.39-1.58,2.52l3.31,18.1,4.48,23.72c-.06.03-.12.05-.17.08l-16-18.46-12.41-14.16c-.62-.73-1.69-.85-2.45-.27l-3.33,2.54c-.92.7-1.12,1.99-.47,2.94l10.15,15.34,13.57,20.27c-.09.11-.18.21-.28.32l-21.56-11.1-16.79-8.52c-.84-.45-1.89-.16-2.38.66l-2.15,3.6c-.59.99-.3,2.27.66,2.91l15.13,10.47,20.24,13.83c-.08.24-.17.48-.24.72l-24.29-1-18.82-.66c-.95-.05-1.78.65-1.88,1.6l-.43,4.17c-.12,1.15.68,2.18,1.82,2.36l18.13,3.13,24,4c.03.31.06.62.09.93l-22.6,8.57-17.57,6.78c-.9.33-1.38,1.3-1.1,2.21l1.24,4c.34,1.1,1.49,1.74,2.6,1.45l17.9-4.25,23.69-5.76c.13.24.27.48.41.72l-16.9,17.3-13.08,13.55c-.68.67-.7,1.76-.06,2.47l2.81,3.11c.77.85,2.08.95,2.97.22l14.45-11.39,18.89-15.06c.3.23.61.45.93.67l-8.42,22.74-6.44,17.7c-.34.89.07,1.89.95,2.28l3.83,1.7c1.05.47,2.29.02,2.8-1l8.57-16.28,11.19-21.56c.22.05.45.11.67.15l1.43,24.19,1.22,18.79c.04.95.83,1.7,1.78,1.71h4.19c1.15.02,2.1-.89,2.16-2.04l1.3-18.35,1.58-24.22c.27-.05.54-.1.81-.16l11.36,21.7,8.83,16.63c.43.85,1.46,1.21,2.33.82l3.83-1.71c1.05-.47,1.55-1.68,1.13-2.76l-6.35-17.27-8.57-22.89c.28-.2.56-.39.84-.6l18.97,15.18,14.77,11.68c.74.61,1.82.53,2.46-.18l2.82-3.1c.77-.85.74-2.16-.07-2.98l-12.76-13.26-16.98-17.45c.2-.34.4-.68.59-1.02l23.69,5.67,18.34,4.28c.93.23,1.87-.3,2.15-1.21l1.23-4.01c.34-1.1-.25-2.27-1.33-2.67l-17.19-6.56-22.69-8.52c.04-.38.08-.75.11-1.13l23.71-4.28,18.51-3.45c.94-.16,1.59-1.03,1.48-1.97"></path><path class="st0" d="M994.25,1810.36l.99-1.83c.27-.5.1-1.13-.38-1.43l-7.71-4.89-10.14-6.35c.07-.22.14-.45.2-.68l11.83-.09,9.34-.13c.47,0,.87-.37.89-.84l.11-2.08c.03-.57-.39-1.06-.96-1.12l-9.06-1.11-11.69-1.36c-.03-.23-.06-.46-.1-.69l10.68-4.79,8.5-3.87c.43-.19.64-.68.48-1.13l-.73-1.95c-.2-.54-.79-.82-1.33-.64l-8.74,2.63-11.23,3.44c-.08-.13-.17-.25-.25-.38l8.01-8.76,6.26-6.93c.32-.35.32-.88,0-1.22l-1.45-1.5c-.4-.41-1.05-.44-1.48-.06l-6.98,5.88-9.12,7.78c-.15-.1-.29-.2-.44-.29l3.57-11.42,2.74-8.93c.15-.45-.08-.94-.53-1.11l-1.94-.74c-.53-.2-1.13.05-1.36.57l-3.83,8.29-4.96,10.9s-.06-.01-.09-.02l-1.21-12.06-.99-9.29c-.04-.47-.45-.83-.92-.81l-2.08.08c-.57.02-1.02.49-1.03,1.06l-.27,9.12-.29,12.1c-.07.02-.14.03-.2.05l-5.57-10.66-4.37-8.26c-.21-.42-.72-.6-1.15-.41l-1.9.85c-.52.23-.77.83-.56,1.37l3.14,8.57,4.25,11.4c-.1.07-.2.14-.3.22l-9.57-7.35-7.44-5.65c-.37-.29-.91-.24-1.22.11l-1.37,1.57c-.38.43-.35,1.08.06,1.48l6.46,6.45,8.59,8.48c-.08.13-.15.27-.23.4l-11.61-2.98-9.06-2.27c-.46-.12-.93.13-1.08.58l-.64,1.98c-.18.54.1,1.13.64,1.33l8.47,3.39,11.26,4.44c-.01.14-.03.27-.04.41l-11.8,2.18-9.18,1.75c-.47.08-.79.51-.73.98l.25,2.07c.07.57.57.98,1.14.94l9.11-.49,11.96-.71c.06.18.12.36.18.54l-9.91,6.81-7.67,5.34c-.39.26-.51.79-.27,1.19l1.07,1.78c.29.49.92.66,1.42.39l8.13-4.15,10.7-5.54c.08.08.15.17.23.25l-6.33,10.22-4.88,7.97c-.25.4-.15.93.23,1.2l1.7,1.2c.47.33,1.11.24,1.46-.21l5.77-7.07,7.56-9.37c.12.06.25.11.37.17l-1.6,12.05-1.17,9.27c-.07.47.24.91.71,1l2.04.4c.56.11,1.11-.24,1.25-.79l2.36-8.82,3.07-11.73c.17,0,.34,0,.51,0l3.35,11.58,2.65,8.96c.13.46.59.73,1.05.63l2.03-.45c.56-.12.92-.67.82-1.23l-1.38-9.02-1.9-11.93c.18-.08.35-.16.53-.25l7.99,9.07,6.21,6.98c.31.36.84.41,1.22.12l1.64-1.27c.45-.35.55-.99.22-1.46l-5.09-7.57-6.77-9.94c.12-.14.25-.28.37-.43l10.84,5.04,8.49,3.89c.43.21.94.04,1.17-.38"></path><path class="st0" d="M1576.82,521.33l-.49-4.16c-.13-1.14-1.14-1.98-2.29-1.9l-18.37.9-24.07,1.32c-.14-.45-.29-.9-.46-1.35l19.38-13.89,15.24-11.06c.78-.55,1-1.61.49-2.42l-2.23-3.55c-.61-.98-1.88-1.3-2.89-.74l-16.21,8.69-20.85,11.33c-.32-.35-.64-.69-.97-1.02l12.03-20.29,9.51-16.25c.5-.81.27-1.88-.52-2.41l-3.47-2.36c-.95-.65-2.25-.43-2.94.49l-11.35,14.48-14.51,18.72c-.28-.12-.57-.23-.85-.34l3.02-23.74,2.27-18.69c.13-.95-.5-1.83-1.44-2.01l-4.12-.79c-1.13-.22-2.23.49-2.5,1.61l-4.66,17.8-5.99,23.41c-.36,0-.71,0-1.07.03l-7.38-22.96-5.86-17.9c-.28-.91-1.23-1.44-2.15-1.21l-4.06,1.03c-1.12.28-1.81,1.39-1.58,2.52l3.31,18.1,4.48,23.72c-.06.03-.12.05-.17.08l-16-18.46-12.41-14.16c-.62-.73-1.69-.85-2.45-.27l-3.33,2.54c-.91.7-1.12,1.99-.47,2.94l10.15,15.34,13.57,20.27c-.09.11-.18.21-.28.32l-21.56-11.1-16.79-8.52c-.84-.45-1.89-.16-2.38.66l-2.15,3.6c-.59.99-.3,2.27.66,2.91l15.13,10.47,20.24,13.83c-.08.24-.17.48-.24.72l-24.29-1-18.82-.66c-.95-.05-1.78.65-1.88,1.6l-.43,4.17c-.12,1.15.68,2.18,1.82,2.36l18.13,3.13,24,4c.03.31.06.62.09.93l-22.6,8.57-17.57,6.78c-.9.33-1.38,1.3-1.1,2.21l1.24,4c.34,1.1,1.49,1.74,2.6,1.45l17.9-4.25,23.69-5.76c.13.24.27.48.41.72l-16.9,17.3-13.08,13.55c-.68.67-.7,1.76-.06,2.47l2.81,3.11c.77.85,2.08.95,2.97.22l14.45-11.39,18.89-15.06c.3.23.61.45.93.67l-8.42,22.74-6.44,17.7c-.34.89.07,1.89.95,2.28l3.83,1.7c1.05.47,2.29.02,2.8-1.01l8.57-16.28,11.19-21.56c.22.05.45.11.67.15l1.43,24.19,1.22,18.79c.04.95.83,1.7,1.78,1.71h4.19c1.15.02,2.1-.89,2.16-2.04l1.3-18.35,1.58-24.22c.27-.05.54-.1.81-.16l11.36,21.7,8.83,16.63c.43.85,1.46,1.21,2.33.82l3.83-1.71c1.05-.47,1.55-1.68,1.13-2.76l-6.35-17.27-8.57-22.89c.28-.2.57-.39.84-.6l18.97,15.18,14.77,11.68c.74.61,1.82.53,2.46-.18l2.82-3.11c.77-.85.74-2.16-.07-2.98l-12.76-13.26-16.98-17.45c.2-.34.4-.68.59-1.02l23.69,5.67,18.34,4.28c.93.23,1.87-.3,2.15-1.21l1.23-4.01c.34-1.1-.25-2.27-1.33-2.67l-17.19-6.56-22.69-8.52c.04-.38.08-.75.11-1.13l23.71-4.28,18.51-3.45c.94-.16,1.59-1.02,1.48-1.97"></path><path class="st0" d="M1531.98,548.98l.99-1.83c.27-.5.1-1.13-.38-1.43l-7.71-4.89-10.14-6.35c.07-.22.14-.45.2-.68l11.83-.09,9.34-.13c.47,0,.86-.37.89-.84l.11-2.08c.03-.57-.39-1.06-.96-1.12l-9.06-1.11-11.69-1.36c-.03-.23-.06-.46-.1-.69l10.68-4.79,8.5-3.87c.44-.19.65-.68.48-1.13l-.73-1.95c-.2-.54-.79-.82-1.33-.64l-8.74,2.63-11.23,3.44c-.08-.13-.17-.25-.25-.38l8.01-8.76,6.26-6.93c.32-.35.32-.88,0-1.22l-1.45-1.5c-.4-.41-1.05-.44-1.48-.06l-6.98,5.88-9.12,7.78c-.15-.1-.29-.2-.44-.29l3.57-11.42,2.74-8.93c.15-.45-.08-.94-.53-1.11l-1.94-.74c-.53-.2-1.13.05-1.36.57l-3.83,8.28-4.96,10.9s-.06-.01-.09-.02l-1.21-12.06-.99-9.29c-.04-.47-.45-.83-.92-.81l-2.08.08c-.57.02-1.02.49-1.03,1.06l-.27,9.12-.29,12.1c-.07.02-.14.03-.2.05l-5.57-10.66-4.37-8.26c-.21-.42-.72-.6-1.15-.41l-1.9.85c-.52.23-.77.83-.56,1.37l3.14,8.57,4.25,11.4c-.1.07-.2.14-.3.22l-9.57-7.35-7.44-5.65c-.37-.29-.91-.24-1.22.11l-1.37,1.57c-.38.43-.35,1.08.06,1.48l6.46,6.45,8.59,8.48c-.08.13-.15.27-.23.4l-11.61-2.98-9.06-2.27c-.46-.12-.93.13-1.08.58l-.64,1.98c-.18.54.11,1.13.64,1.33l8.47,3.39,11.26,4.44c-.01.14-.03.27-.04.41l-11.8,2.19-9.18,1.75c-.47.08-.79.51-.73.98l.25,2.06c.07.57.57.98,1.14.94l9.11-.49,11.96-.71c.06.18.12.36.18.54l-9.91,6.81-7.67,5.34c-.39.26-.51.79-.27,1.2l1.07,1.78c.29.49.92.66,1.42.39l8.13-4.15,10.7-5.54c.08.08.15.17.23.25l-6.34,10.22-4.88,7.97c-.25.4-.15.93.24,1.2l1.7,1.2c.47.33,1.11.24,1.46-.21l5.77-7.07,7.56-9.37c.12.06.25.11.37.16l-1.6,12.05-1.17,9.27c-.07.47.24.91.71,1l2.04.4c.56.11,1.11-.24,1.25-.79l2.36-8.82,3.07-11.73c.17,0,.34,0,.51,0l3.35,11.58,2.65,8.96c.13.46.59.73,1.05.63l2.03-.45c.56-.12.92-.67.82-1.23l-1.38-9.02-1.9-11.93c.18-.08.35-.16.53-.25l7.99,9.07,6.21,6.98c.31.36.84.41,1.22.12l1.64-1.28c.45-.35.55-.99.22-1.46l-5.09-7.57-6.77-9.94c.13-.14.25-.28.37-.43l10.84,5.04,8.49,3.89c.43.2.94.04,1.17-.38"></path><path class="st0" d="M1576.82,1284.61l-.49-4.16c-.13-1.14-1.14-1.98-2.29-1.9l-18.37.9-24.07,1.32c-.14-.45-.29-.9-.46-1.35l19.38-13.89,15.24-11.06c.78-.55,1-1.61.49-2.42l-2.23-3.55c-.61-.98-1.88-1.3-2.89-.74l-16.21,8.69-20.85,11.33c-.32-.35-.64-.69-.97-1.02l12.03-20.29,9.51-16.25c.5-.81.27-1.88-.52-2.41l-3.47-2.36c-.95-.65-2.25-.43-2.94.49l-11.35,14.48-14.51,18.72c-.28-.12-.57-.23-.85-.34l3.02-23.74,2.27-18.69c.13-.94-.5-1.83-1.44-2.01l-4.12-.79c-1.13-.22-2.23.49-2.5,1.61l-4.66,17.8-5.99,23.41c-.36,0-.71.01-1.07.03l-7.38-22.96-5.86-17.9c-.28-.91-1.23-1.44-2.15-1.21l-4.06,1.03c-1.12.28-1.81,1.39-1.58,2.52l3.31,18.1,4.48,23.72c-.06.03-.12.05-.17.08l-16-18.46-12.41-14.16c-.62-.73-1.69-.85-2.45-.27l-3.33,2.54c-.91.7-1.12,1.99-.47,2.94l10.15,15.34,13.57,20.27c-.09.11-.18.22-.28.32l-21.56-11.1-16.79-8.52c-.84-.45-1.89-.15-2.38.66l-2.15,3.6c-.59.99-.3,2.27.66,2.91l15.13,10.47,20.24,13.83c-.08.24-.17.48-.24.72l-24.29-1-18.82-.66c-.95-.05-1.78.65-1.88,1.6l-.43,4.17c-.12,1.15.68,2.18,1.82,2.36l18.13,3.13,24,4c.03.31.06.62.09.93l-22.6,8.57-17.57,6.78c-.9.33-1.38,1.3-1.1,2.21l1.24,4c.34,1.1,1.49,1.74,2.6,1.45l17.9-4.25,23.69-5.76c.13.24.27.48.41.72l-16.9,17.3-13.08,13.55c-.68.68-.7,1.76-.06,2.47l2.81,3.11c.77.85,2.08.95,2.97.22l14.45-11.39,18.89-15.06c.3.23.61.45.93.67l-8.42,22.74-6.44,17.7c-.34.89.07,1.89.95,2.28l3.83,1.7c1.05.47,2.29.02,2.8-1l8.57-16.28,11.19-21.56c.22.05.45.11.67.15l1.43,24.19,1.22,18.79c.04.95.83,1.7,1.78,1.71h4.19c1.15.02,2.1-.89,2.16-2.04l1.3-18.35,1.58-24.22c.27-.05.54-.1.81-.16l11.36,21.7,8.83,16.63c.43.85,1.46,1.21,2.33.82l3.83-1.71c1.05-.47,1.55-1.68,1.13-2.76l-6.35-17.27-8.57-22.89c.28-.2.57-.39.84-.6l18.97,15.18,14.77,11.68c.74.61,1.82.53,2.46-.18l2.82-3.11c.77-.85.74-2.16-.07-2.98l-12.76-13.25-16.98-17.45c.2-.34.4-.68.59-1.02l23.69,5.67,18.34,4.28c.93.23,1.87-.3,2.15-1.21l1.23-4.01c.34-1.1-.25-2.27-1.33-2.67l-17.19-6.56-22.69-8.52c.04-.38.08-.75.11-1.13l23.71-4.28,18.51-3.45c.94-.16,1.59-1.03,1.48-1.97"></path><path class="st0" d="M1531.98,1312.26l.99-1.83c.27-.5.1-1.13-.38-1.43l-7.71-4.89-10.14-6.35c.07-.22.14-.45.2-.68l11.83-.09,9.34-.13c.47,0,.86-.37.89-.84l.11-2.08c.03-.57-.39-1.06-.96-1.12l-9.06-1.11-11.69-1.36c-.03-.23-.06-.46-.1-.69l10.68-4.79,8.5-3.87c.44-.19.65-.68.48-1.13l-.73-1.95c-.2-.54-.79-.82-1.33-.64l-8.74,2.63-11.23,3.44c-.08-.13-.17-.25-.25-.38l8.01-8.76,6.26-6.93c.32-.35.32-.88,0-1.23l-1.45-1.5c-.4-.41-1.05-.44-1.48-.06l-6.98,5.88-9.12,7.78c-.15-.1-.29-.2-.44-.29l3.57-11.42,2.74-8.93c.15-.45-.08-.94-.53-1.1l-1.94-.74c-.53-.2-1.13.05-1.36.57l-3.83,8.29-4.96,10.9s-.06-.01-.09-.02l-1.21-12.06-.99-9.29c-.04-.47-.45-.83-.92-.81l-2.08.08c-.57.02-1.02.49-1.03,1.06l-.27,9.12-.29,12.1c-.07.02-.14.03-.2.05l-5.57-10.66-4.37-8.26c-.21-.42-.72-.6-1.15-.41l-1.9.85c-.52.23-.77.83-.56,1.37l3.14,8.57,4.25,11.4c-.1.07-.2.14-.3.22l-9.57-7.35-7.44-5.65c-.37-.29-.91-.24-1.22.11l-1.37,1.57c-.38.43-.35,1.08.06,1.48l6.46,6.45,8.59,8.48c-.08.13-.15.27-.23.4l-11.61-2.98-9.06-2.27c-.46-.12-.93.13-1.08.58l-.64,1.98c-.18.54.11,1.13.64,1.33l8.47,3.39,11.26,4.44c-.01.14-.03.27-.04.41l-11.8,2.19-9.18,1.76c-.47.08-.79.51-.73.98l.25,2.07c.07.57.57.98,1.14.94l9.11-.49,11.96-.71c.06.18.12.36.18.54l-9.91,6.81-7.67,5.34c-.39.26-.51.79-.27,1.19l1.07,1.78c.29.49.92.66,1.42.39l8.13-4.15,10.7-5.54c.08.08.15.17.23.25l-6.34,10.22-4.88,7.97c-.25.4-.15.93.24,1.2l1.7,1.2c.47.33,1.11.24,1.46-.21l5.77-7.07,7.56-9.37c.12.06.25.11.37.16l-1.6,12.05-1.17,9.27c-.07.47.24.91.71,1l2.04.4c.56.11,1.11-.24,1.25-.79l2.36-8.82,3.07-11.73c.17,0,.34,0,.51,0l3.35,11.58,2.65,8.96c.13.46.59.73,1.05.63l2.03-.45c.56-.12.92-.66.82-1.23l-1.38-9.02-1.9-11.93c.18-.08.35-.16.53-.25l7.99,9.07,6.21,6.98c.31.36.84.41,1.22.12l1.64-1.27c.45-.35.55-.99.22-1.46l-5.09-7.57-6.77-9.94c.13-.14.25-.28.37-.43l10.84,5.04,8.49,3.89c.43.21.94.04,1.17-.38"></path></svg>